<svg id="Capa_1" data-name="Capa 1" xmlns="http://www.w3.org/2000/svg" viewBox="0 0 30.28 30.28"><defs><style>.cls-1{fill:#347028;stroke:#347028;}.cls-1,.cls-2{stroke-miterlimit:10;}.cls-2{fill:#d87321;stroke:#d87321;}.cls-3{font-size:9.65px;}.cls-3,.cls-4{fill:#fff;font-family:NiagaraEngraved-Reg, Niagara Engraved;}.cls-4{font-size:3.7px;}</style></defs><path class="cls-1" d="M15.58,23.46a7.27,7.27,0,0,1-7,7.11,7.13,7.13,0,0,1-7.19-7.19,7.27,7.27,0,0,1,7.11-7C16,15.93,16,15.93,15.58,23.46Z" transform="translate(-0.86 -0.79)"/><path class="cls-1" d="M15.58,8.4c.42,7.53.42,7.53-7.11,7.11a7.27,7.27,0,0,1-7.11-7A7.12,7.12,0,0,1,8.55,1.29,7.26,7.26,0,0,1,15.58,8.4Z" transform="translate(-0.86 -0.79)"/><path class="cls-1" d="M23.53,15.51c-7.53.42-7.53.42-7.11-7.11a7.26,7.26,0,0,1,7-7.11,7.12,7.12,0,0,1,7.19,7.18A7.27,7.27,0,0,1,23.53,15.51Z" transform="translate(-0.86 -0.79)"/><path class="cls-1" d="M30.64,23.39a7.13,7.13,0,0,1-7.2,7.18,7.27,7.27,0,0,1-7-7.11c-.42-7.53-.89-7.53,7.11-7.12A7.26,7.26,0,0,1,30.64,23.39Z" transform="translate(-0.86 -0.79)"/><path class="cls-2" d="M15.84,18.76c-.11,2.09-2.31,3.63-4.66,2-1.65-2.36-.11-4.55,2-4.67C16,15.93,16,15.93,15.84,18.76Z" transform="translate(-0.86 -0.79)"/><path class="cls-2" d="M15.84,13.09c.16,2.84.16,2.84-2.68,2.68-2.09-.12-3.63-2.31-2-4.67C13.53,9.46,15.73,11,15.84,13.09Z" transform="translate(-0.86 -0.79)"/><path class="cls-2" d="M18.84,15.77c-2.84.16-2.84.16-2.68-2.68.11-2.09,2.31-3.63,4.66-2C22.47,13.46,20.93,15.65,18.84,15.77Z" transform="translate(-0.86 -0.79)"/><path class="cls-2" d="M20.82,20.75c-2.36,1.64-4.55.1-4.66-2-.16-2.83-.34-2.83,2.68-2.68C20.93,16.19,22.47,18.4,20.82,20.75Z" transform="translate(-0.86 -0.79)"/><text class="cls-3" transform="translate(2.99 10.19) scale(2.69 1)">L</text><text class="cls-3" transform="translate(19.36 10.19) scale(2.69 1)">T</text><text class="cls-3" transform="translate(3.13 28.04) scale(2.69 1)">S</text><text class="cls-4" transform="translate(20.66 21.43)">LOTERÍA</text><text class="cls-4" transform="translate(16.37 24.51) scale(1.16 1)">del TREBOL</text><text class="cls-4" transform="translate(17.7 27.63) scale(1.15 1)">SOLIDARÍO</text></svg>