<svg id="Capa_1" data-name="Capa 1" xmlns="http://www.w3.org/2000/svg" viewBox="0 0 574.63 272.44"><defs><style>.cls-1,.cls-4{fill:#347028;stroke:#347028;}.cls-1,.cls-2,.cls-4,.cls-5{stroke-miterlimit:10;}.cls-2,.cls-5{fill:#d87321;stroke:#d87321;}.cls-3{font-size:89.22px;fill:#fff;}.cls-3,.cls-4,.cls-5{font-family:NiagaraEngraved-Reg, Niagara Engraved;}.cls-4,.cls-5{font-size:98.02px;}</style></defs><path class="cls-1" d="M144.59,268.89c-2,36-29,65.31-65,65.7a65.87,65.87,0,0,1-66.42-66.42c.39-35.93,29.71-63,65.7-65C148.47,199.31,148.47,199.31,144.59,268.89Z" transform="translate(-12.69 -63.53)"/><path class="cls-1" d="M144.59,129.74c3.88,69.57,3.88,69.57-65.7,65.7-36-2-65.31-29.05-65.7-65A65.86,65.86,0,0,1,79.61,64C115.54,64.42,142.59,93.75,144.59,129.74Z" transform="translate(-12.69 -63.53)"/><path class="cls-1" d="M218,195.44c-69.57,3.87-69.57,3.87-65.7-65.7,2-36,29-65.32,65-65.7a65.86,65.86,0,0,1,66.42,66.42C283.36,166.39,254,193.44,218,195.44Z" transform="translate(-12.69 -63.53)"/><path class="cls-1" d="M283.75,268.27a65.87,65.87,0,0,1-66.49,66.32c-35.9-.42-62.92-29.73-64.92-65.7-3.87-69.58-8.22-69.58,65.7-65.7C254.08,205.08,283.41,232.29,283.75,268.27Z" transform="translate(-12.69 -63.53)"/><path class="cls-2" d="M147,225.53c-1.08,19.33-21.34,33.56-43.12,18.36-15.2-21.78-1-42,18.36-43.12C148.47,199.31,148.47,199.31,147,225.53Z" transform="translate(-12.69 -63.53)"/><path class="cls-2" d="M147,173.1c1.46,26.21,1.46,26.21-24.76,24.75-19.33-1.07-33.56-21.33-18.36-43.12C125.67,139.54,145.93,153.77,147,173.1Z" transform="translate(-12.69 -63.53)"/><path class="cls-2" d="M174.68,197.85c-26.21,1.46-26.21,1.46-24.75-24.75,1.07-19.33,21.33-33.56,43.12-18.37C208.24,176.52,194,196.78,174.68,197.85Z" transform="translate(-12.69 -63.53)"/><path class="cls-2" d="M193,243.92c-21.77,15.15-42,.93-43.08-18.39-1.46-26.22-3.1-26.22,24.75-24.76C194,201.79,208.27,222.2,193,243.92Z" transform="translate(-12.69 -63.53)"/><text class="cls-3" transform="translate(23.49 90.07) scale(2.69 1)">L</text><text class="cls-3" transform="translate(174.82 90.07) scale(2.69 1)">T</text><text class="cls-3" transform="translate(24.82 254.97) scale(2.69 1)">S</text><text class="cls-4" transform="translate(280.3 86.27) scale(1.53 1)">LOTERÍA</text><text class="cls-5" transform="translate(263.01 162.12) scale(1.16 1)">del TREBOL</text><text class="cls-4" transform="translate(280.3 245.02) scale(1.26 1)">SOLIDARÍO</text></svg>